<?xml version="1.0" encoding="UTF-8" standalone="yes"?>
<svg version="1.1" xmlns:x="&amp;ns_extend;" xmlns:i="&amp;ns_ai;" xmlns:graph="&amp;ns_graphs;" xmlns="http://www.w3.org/2000/svg" xmlns:xlink="http://www.w3.org/1999/xlink" x="0px" y="0px" viewBox="0 0 315 136.4" style="enable-background:new 0 0 315 136.4;" xml:space="preserve">
      <style type="text/css">.st0{fill:url(#SVGID_1_);}</style>
    <metadata>
              <sfw>
                      <slices/>
            <sliceSourceBounds bottomLeftOrigin="true" height="136.2" width="314.8" x="0.2" y="0.2"/>
                  </sfw>
          </metadata>
    <g id="color_index_g">
              <linearGradient id="SVGID_1_" gradientUnits="userSpaceOnUse" x1="-158.2422" y1="44.0103" x2="432.382" y2="116.9464">
                      <stop offset="0.2391" style="stop-color:#b5afff"/>
            <stop offset="0.799" style="stop-color:#5d5fef"/>
                  </linearGradient>
        <path class="st0" d="M315,104.3L315,104.3C315,104.2,315,104.2,315,104.3L315,104.3v-0.2l0,0V104c0-0.1,0-0.2,0-0.3&#x9;&#x9;c0-0.1,0-0.2,0-0.3c0-0.1,0-0.1,0-0.2v-0.1V103c0-0.5-0.3-1.1-0.8-1.3c-15.4-6.3-26.2-2.1-36.7,1.9c-10.4,4.1-20.3,7.9-34.8,1.9&#x9;&#x9;c-14.5-5.9-18.8-15.6-23.3-25.8c-4.6-10.2-9.3-20.8-24.7-27.2c-15.4-6.3-26.2-2.1-36.7,1.9c-10.4,4.1-20.3,7.9-34.8,1.9&#x9;&#x9;c-14.5-5.9-18.8-15.6-23.3-25.8C95.3,20.2,90.5,9.6,75.1,3.2c-15.4-6.3-26.2-2.1-36.7,2c-8.5,3.3-16.6,6.5-27.2,4.3&#x9;&#x9;c-0.7-0.2-1.4,0.3-1.5,1s0.3,1.4,1,1.5c11.3,2.3,20.2-1.1,28.7-4.4c10.4-4.1,20.3-7.9,34.8-1.9C88.7,11.6,93,21.3,97.5,31.5&#x9;&#x9;c4.6,10.2,9.3,20.8,24.7,27.2c15.4,6.3,26.2,2.1,36.7-1.9c10.4-4.1,20.3-7.9,34.8-1.9c11.8,4.8,16.8,12.1,20.8,20.2&#x9;&#x9;c-4.2-6.8-10-13.1-20.9-17c-15.6-5.6-26.1-1-36.3,3.5s-19.8,8.7-34.4,3.4s-19.3-14.7-24.2-24.6c-5-10-10.1-20.3-25.7-25.9&#x9;&#x9;s-26.1-1-36.3,3.5c-8.2,3.6-16,7-26.4,5.5c-0.7-0.1-1.4,0.4-1.5,1.1s0.4,1.4,1.1,1.5c11.2,1.7,19.7-2,27.9-5.6&#x9;&#x9;C48,16,57.6,11.8,72.2,17.1s19.3,14.7,24.2,24.6c5,10,10.1,20.3,25.7,25.9s26.1,1,36.3-3.5s19.8-8.7,34.4-3.4&#x9;&#x9;c12.6,4.6,17.8,12.2,22.2,20.6c-4.6-7.1-10.6-13.7-22.4-17.4c-15.7-4.9-26,0.1-35.9,5c-9.9,4.9-19.3,9.5-34,4.9S102.9,60,97.6,50.4&#x9;&#x9;c-5.6-10-11.2-20.1-26.9-25s-26,0.1-35.9,5c-7.5,3.7-14.5,7.1-23.8,6.7c-0.7,0-1.3,0.5-1.4,1.2c0,0.7,0.5,1.3,1.2,1.4&#x9;&#x9;c10,0.4,17.7-3.3,25.1-7c9.9-4.9,19.3-9.5,34-4.9C84.6,32.5,89.7,41.7,95,51.3C100.4,61,105.9,71,121.7,76c15.7,4.9,26-0.1,35.9-5&#x9;&#x9;c9.9-4.9,19.3-9.5,34-4.9c13.6,4.3,18.9,12.4,23.9,21.2c-5-7.6-11.4-14.6-24.2-18.1c-15.9-4.2-25.9,1.2-35.6,6.5S136.9,86,122.1,82&#x9;&#x9;s-20.3-12.8-26-22.2c-5.8-9.4-11.7-19.1-27.6-23.4c-15.9-4.2-25.9,1.2-35.6,6.5C25,47.3,17.6,51.4,7,50.7c-0.7,0-1.3,0.5-1.4,1.2&#x9;&#x9;s0.5,1.3,1.2,1.4c11.3,0.8,19.4-3.6,27.3-7.9C43.8,40.1,53,35.1,67.8,39c14.8,4,20.3,12.8,26,22.2c5.8,9.4,11.7,19.1,27.6,23.4&#x9;&#x9;c15.8,4.2,25.9-1.2,35.6-6.5s18.8-10.3,33.6-6.3s20.3,12.8,26,22.2c-5.6-8.1-12.2-15.9-26.5-19.1c-16-3.5-25.7,2.4-35.2,8.1&#x9;&#x9;c-9.4,5.7-18.3,11.1-33.3,7.8c-15-3.3-20.8-11.9-26.9-21c-6.2-9.1-12.5-18.6-28.5-22.1S40.5,50.1,31,55.8&#x9;&#x9;c-7.4,4.4-14.3,8.6-24.2,8.8c-0.7,0-1.3,0.6-1.3,1.3C5.7,66.5,6.2,67,7,67l0,0c10.6-0.1,18.1-4.7,25.5-9.1&#x9;&#x9;c9.4-5.7,18.3-11.1,33.2-7.8c15,3.3,20.8,11.9,26.9,21c6.2,9.1,12.5,18.6,28.5,22.1s25.7-2.4,35.2-8.1c9.4-5.7,18.3-11.1,33.2-7.8&#x9;&#x9;c15,3.3,20.8,11.9,26.9,21c0.6,0.9,1.3,1.9,1.9,2.8c-6.5-8.8-13.3-17.9-29.4-20.7c-16.1-2.8-25.6,3.5-34.8,9.6&#x9;&#x9;c-9.1,6.1-17.8,11.8-32.9,9.2c-15.1-2.6-21.3-11-27.8-19.8c-6.6-8.9-13.3-18-29.5-20.8c-16.1-2.8-25.6,3.5-34.8,9.6&#x9;&#x9;C22,72.9,15.3,77.4,5.5,78c-0.7,0-1.3,0.7-1.2,1.4c0,0.7,0.7,1.3,1.4,1.2c10.4-0.6,17.8-5.5,24.8-10.2c9.1-6.1,17.8-11.8,32.9-9.2&#x9;&#x9;s21.3,11,27.8,19.8c6.6,8.9,13.3,18,29.5,20.8c16.1,2.8,25.6-3.5,34.8-9.6c9.1-6.1,17.8-11.8,32.9-9.2c15.1,2.6,21.3,11,27.8,19.8&#x9;&#x9;c6.6,8.9,13.3,18,29.5,20.8c2.7,0.5,5.3,0.7,7.6,0.7c3,0,5.8-0.4,8.3-1c-4.2,1.2-9,1.6-14.8,0.8c-15.2-2-21.8-10.1-28.7-18.6&#x9;&#x9;c-6.9-8.6-14.1-17.4-30.4-19.6c-16.3-2.1-25.5,4.6-34.4,11.1s-17.3,12.6-32.5,10.7c-15.2-2-21.8-10.1-28.7-18.6&#x9;&#x9;C85.2,80.5,78,71.7,61.7,69.5c-16.3-2.1-25.5,4.6-34.4,11.1c-6.8,5-13.2,9.7-22.7,10.8c-0.7,0.1-1.2,0.7-1.1,1.5&#x9;&#x9;C3.6,93.6,4.2,94.1,5,94c10.2-0.9,17.2-6,24-11c8.9-6.5,17.3-12.6,32.5-10.7c15.2,2,21.8,10.1,28.7,18.6&#x9;&#x9;c6.9,8.6,14.1,17.4,30.4,19.6c16.3,2.1,25.5-4.6,34.4-11.1s17.3-12.6,32.5-10.7c15.2,2,21.8,10.1,28.7,18.6&#x9;&#x9;c6.9,8.6,14.1,17.4,30.4,19.6c2.1,0.3,4,0.4,5.9,0.4c3.7,0,7.1-0.5,10.1-1.4c-4.2,1.4-9.1,2.1-15,1.5c-15.4-1.3-22.3-9.1-29.6-17.4&#x9;&#x9;s-14.9-16.9-31.3-18.3s-25.3,5.7-34,12.7c-8.6,6.9-16.8,13.4-32.1,12.1c-15.4-1.3-22.3-9.1-29.6-17.4c-7.4-8.2-15-16.8-31.4-18.2&#x9;&#x9;s-25.4,5.7-34,12.7c-6.5,5.2-12.6,10.1-21.9,11.7c-0.7,0.1-1.2,0.8-1.1,1.5c0.1,0.7,0.8,1.2,1.5,1.1c9.9-1.7,16.6-7.1,23-12.3&#x9;&#x9;c8.6-6.9,16.8-13.4,32.1-12.1c15.4,1.3,22.3,9.1,29.6,17.4c7.3,8.3,14.9,16.9,31.3,18.3s25.4-5.7,34-12.7&#x9;&#x9;c8.6-6.9,16.8-13.4,32.1-12.1c15.4,1.3,22.3,9.1,29.6,17.4s14.9,16.9,31.3,18.3c1.4,0.1,2.8,0.2,4.1,0.2c4.4,0,8.2-0.7,11.7-1.8&#x9;&#x9;c-4.1,1.5-8.9,2.4-14.8,2.1c-15.5-0.7-22.8-8.2-30.5-16.2s-15.7-16.3-32.3-17s-25.2,6.9-33.6,14.2c-8.4,7.3-16.3,14.2-31.8,13.6&#x9;&#x9;c-15.5-0.7-22.8-8.2-30.5-16.2c-7.4-8-15.4-16.3-32-17c-16.5-0.7-25.2,6.9-33.6,14.2c-6.3,5.5-12.2,10.7-21.4,12.7&#x9;&#x9;c-0.7,0.2-1.2,0.9-1,1.6s0.9,1.1,1.6,1c9.8-2.2,16.3-7.8,22.6-13.3C34,100.9,41.9,94,57.4,94.6c15.5,0.7,22.8,8.2,30.5,16.2&#x9;&#x9;s15.7,16.3,32.3,17s25.2-6.9,33.6-14.2c8.4-7.3,16.3-14.2,31.8-13.6c15.5,0.7,22.8,8.2,30.5,16.2s15.7,16.3,32.3,17&#x9;&#x9;c0.7,0,1.4,0,2.1,0c5.3,0,9.8-0.9,13.7-2.4c-4.1,1.8-9,2.9-15,2.9c-15.6,0-23.3-7.3-31.4-15c-8.1-7.7-16.5-15.7-33.2-15.7&#x9;&#x9;s-25.1,8-33.2,15.7c-8.1,7.7-15.8,15-31.4,15s-23.3-7.3-31.4-15S72.1,103,55.4,103s-25.1,8-33.2,15.7c-6.1,5.8-11.9,11.3-21,13.7&#x9;&#x9;c-0.7,0.2-1.1,0.9-0.9,1.6c0.2,0.7,0.9,1.1,1.6,0.9c9.8-2.6,16.1-8.6,22.1-14.4c8.1-7.7,15.8-15,31.4-15s23.3,7.3,31.4,15&#x9;&#x9;s16.5,15.7,33.2,15.7s25.1-8,33.2-15.7c8.1-7.7,15.8-15,31.4-15s23.3,7.3,31.4,15c8.1,7.7,16.5,15.7,33.2,15.7s25.1-8,33.2-15.7&#x9;&#x9;s15.8-15,31.4-15C314.4,105.7,315,105.1,315,104.3L315,104.3z"/>
          </g>
  </svg>