<svg xmlns="http://www.w3.org/2000/svg" xmlns:xlink="http://www.w3.org/1999/xlink" aria-hidden="true" role="img" class="iconify iconify--logos" width="61.88" height="42" preserveAspectRatio="xMidYMid meet" viewBox="0 0 256 257">
<title>Whispers logo </title>
	<defs>
		<linearGradient id="g1" x2="1" gradientUnits="userSpaceOnUse" gradientTransform="matrix(590.624,72.936,-32.784,265.476,-158.242,44.01)">
			<stop offset=".239" stop-color="#b5afff"/>
			<stop offset=".77" stop-color="#5d5fef"/>
			<stop offset=".799" stop-color="#5d5fef"/>
		</linearGradient>
	</defs>
	<style>
		.s0 { fill: url(#g1) } 
	</style>
	<g id="color_index_g">
		<path id="Layer" class="s0" d="m315 104.3q0-0.1 0 0v-0.2-0.1q0-0.1 0-0.3 0-0.1 0-0.3c0-0.1 0-0.1 0-0.2v-0.1-0.1c0-0.5-0.3-1.1-0.8-1.3-15.4-6.3-26.2-2.1-36.7 1.9-10.4 4.1-20.3 7.9-34.8 1.9-14.5-5.9-18.8-15.6-23.3-25.8-4.6-10.2-9.3-20.8-24.7-27.2-15.4-6.3-26.2-2.1-36.7 1.9-10.4 4.1-20.3 7.9-34.8 1.9-14.5-5.9-18.8-15.6-23.3-25.8-4.6-10.3-9.4-20.9-24.8-27.3-15.4-6.3-26.2-2.1-36.7 2-8.5 3.3-16.6 6.5-27.2 4.3-0.7-0.2-1.4 0.3-1.5 1-0.1 0.7 0.3 1.4 1 1.5 11.3 2.3 20.2-1.1 28.7-4.4 10.4-4.1 20.3-7.9 34.8-1.9 14.5 5.9 18.8 15.6 23.3 25.8 4.6 10.2 9.3 20.8 24.7 27.2 15.4 6.3 26.2 2.1 36.7-1.9 10.4-4.1 20.3-7.9 34.8-1.9 11.8 4.8 16.8 12.1 20.8 20.2-4.2-6.8-10-13.1-20.9-17-15.6-5.6-26.1-1-36.3 3.5-10.2 4.5-19.8 8.7-34.4 3.4-14.6-5.3-19.3-14.7-24.2-24.6-5-10-10.1-20.3-25.7-25.9-15.6-5.6-26.1-1-36.3 3.5-8.2 3.6-16 7-26.4 5.5-0.7-0.1-1.4 0.4-1.5 1.1-0.1 0.7 0.4 1.4 1.1 1.5 11.2 1.7 19.7-2 27.9-5.6 10.2-4.5 19.8-8.7 34.4-3.4 14.6 5.3 19.3 14.7 24.2 24.6 5 10 10.1 20.3 25.7 25.9 15.6 5.6 26.1 1 36.3-3.5 10.2-4.5 19.8-8.7 34.4-3.4 12.6 4.6 17.8 12.2 22.2 20.6-4.6-7.1-10.6-13.7-22.4-17.4-15.7-4.9-26 0.1-35.9 5-9.9 4.9-19.3 9.5-34 4.9-14.7-4.6-19.8-13.8-25.1-23.4-5.6-10-11.2-20.1-26.9-25-15.7-4.9-26 0.1-35.9 5-7.5 3.7-14.5 7.1-23.8 6.7-0.7 0-1.3 0.5-1.4 1.2 0 0.7 0.5 1.3 1.2 1.4 10 0.4 17.7-3.3 25.1-7 9.9-4.9 19.3-9.5 34-4.9 14.7 4.7 19.8 13.9 25.1 23.5 5.4 9.7 10.9 19.7 26.7 24.7 15.7 4.9 26-0.1 35.9-5 9.9-4.9 19.3-9.5 34-4.9 13.6 4.3 18.9 12.4 23.9 21.2-5-7.6-11.4-14.6-24.2-18.1-15.9-4.2-25.9 1.2-35.6 6.5-9.7 5.3-18.8 10.3-33.6 6.3-14.8-4-20.3-12.8-26-22.2-5.8-9.4-11.7-19.1-27.6-23.4-15.9-4.2-25.9 1.2-35.6 6.5-7.9 4.4-15.3 8.5-25.9 7.8-0.7 0-1.3 0.5-1.4 1.2-0.1 0.7 0.5 1.3 1.2 1.4 11.3 0.8 19.4-3.6 27.3-7.9 9.7-5.3 18.9-10.3 33.7-6.4 14.8 4 20.3 12.8 26 22.2 5.8 9.4 11.7 19.1 27.6 23.4 15.8 4.2 25.9-1.2 35.6-6.5 9.7-5.3 18.8-10.3 33.6-6.3 14.8 4 20.3 12.8 26 22.2-5.6-8.1-12.2-15.9-26.5-19.1-16-3.5-25.7 2.4-35.2 8.1-9.4 5.7-18.3 11.1-33.3 7.8-15-3.3-20.8-11.9-26.9-21-6.2-9.1-12.5-18.6-28.5-22.1-16-3.5-25.7 2.4-35.2 8.1-7.4 4.4-14.3 8.6-24.2 8.8-0.7 0-1.3 0.6-1.3 1.3 0.2 0.6 0.7 1.1 1.5 1.1 10.6-0.1 18.1-4.7 25.5-9.1 9.4-5.7 18.3-11.1 33.2-7.8 15 3.3 20.8 11.9 26.9 21 6.2 9.1 12.5 18.6 28.5 22.1 16 3.5 25.7-2.4 35.2-8.1 9.4-5.7 18.3-11.1 33.2-7.8 15 3.3 20.8 11.9 26.9 21 0.6 0.9 1.3 1.9 1.9 2.8-6.5-8.8-13.3-17.9-29.4-20.7-16.1-2.8-25.6 3.5-34.8 9.6-9.1 6.1-17.8 11.8-32.9 9.2-15.1-2.6-21.3-11-27.8-19.8-6.6-8.9-13.3-18-29.5-20.8-16.1-2.8-25.6 3.5-34.8 9.6-7.1 4.7-13.8 9.2-23.6 9.8-0.7 0-1.3 0.7-1.2 1.4 0 0.7 0.7 1.3 1.4 1.2 10.4-0.6 17.8-5.5 24.8-10.2 9.1-6.1 17.8-11.8 32.9-9.2 15.1 2.6 21.3 11 27.8 19.8 6.6 8.9 13.3 18 29.5 20.8 16.1 2.8 25.6-3.5 34.8-9.6 9.1-6.1 17.8-11.8 32.9-9.2 15.1 2.6 21.3 11 27.8 19.8 6.6 8.9 13.3 18 29.5 20.8 2.7 0.5 5.3 0.7 7.6 0.7 3 0 5.8-0.4 8.3-1-4.2 1.2-9 1.6-14.8 0.8-15.2-2-21.8-10.1-28.7-18.6-6.9-8.6-14.1-17.4-30.4-19.6-16.3-2.1-25.5 4.6-34.4 11.1-8.9 6.5-17.3 12.6-32.5 10.7-15.2-2-21.8-10.1-28.7-18.6-6.9-8.6-14.1-17.4-30.4-19.6-16.3-2.1-25.5 4.6-34.4 11.1-6.8 5-13.2 9.7-22.7 10.8-0.7 0.1-1.2 0.7-1.1 1.5 0.1 0.7 0.7 1.2 1.5 1.1 10.2-0.9 17.2-6 24-11 8.9-6.5 17.3-12.6 32.5-10.7 15.2 2 21.8 10.1 28.7 18.6 6.9 8.6 14.1 17.4 30.4 19.6 16.3 2.1 25.5-4.6 34.4-11.1 8.9-6.5 17.3-12.6 32.5-10.7 15.2 2 21.8 10.1 28.7 18.6 6.9 8.6 14.1 17.4 30.4 19.6 2.1 0.3 4 0.4 5.9 0.4 3.7 0 7.1-0.5 10.1-1.4-4.2 1.4-9.1 2.1-15 1.5-15.4-1.3-22.3-9.1-29.6-17.4-7.3-8.3-14.9-16.9-31.3-18.3-16.4-1.4-25.3 5.7-34 12.7-8.6 6.9-16.8 13.4-32.1 12.1-15.4-1.3-22.3-9.1-29.6-17.4-7.4-8.2-15-16.8-31.4-18.2-16.4-1.4-25.4 5.7-34 12.7-6.5 5.2-12.6 10.1-21.9 11.7-0.7 0.1-1.2 0.8-1.1 1.5 0.1 0.7 0.8 1.2 1.5 1.1 9.9-1.7 16.6-7.1 23-12.3 8.6-6.9 16.8-13.4 32.1-12.1 15.4 1.3 22.3 9.1 29.6 17.4 7.3 8.3 14.9 16.9 31.3 18.3 16.4 1.4 25.4-5.7 34-12.7 8.6-6.9 16.8-13.4 32.1-12.1 15.4 1.3 22.3 9.1 29.6 17.4 7.3 8.3 14.9 16.9 31.3 18.3 1.4 0.1 2.8 0.2 4.1 0.2 4.4 0 8.2-0.7 11.7-1.8-4.1 1.5-8.9 2.4-14.8 2.1-15.5-0.7-22.8-8.2-30.5-16.2-7.7-8-15.7-16.3-32.3-17-16.6-0.7-25.2 6.9-33.6 14.2-8.4 7.3-16.3 14.2-31.8 13.6-15.5-0.7-22.8-8.2-30.5-16.2-7.4-8-15.4-16.3-32-17-16.5-0.7-25.2 6.9-33.6 14.2-6.3 5.5-12.2 10.7-21.4 12.7-0.7 0.2-1.2 0.9-1 1.6 0.2 0.7 0.9 1.1 1.6 1 9.8-2.2 16.3-7.8 22.6-13.3 8.4-7.3 16.3-14.2 31.8-13.6 15.5 0.7 22.8 8.2 30.5 16.2 7.7 8 15.7 16.3 32.3 17 16.6 0.7 25.2-6.9 33.6-14.2 8.4-7.3 16.3-14.2 31.8-13.6 15.5 0.7 22.8 8.2 30.5 16.2 7.7 8 15.7 16.3 32.3 17q1.1 0 2.1 0c5.3 0 9.8-0.9 13.7-2.4-4.1 1.8-9 2.9-15 2.9-15.6 0-23.3-7.3-31.4-15-8.1-7.7-16.5-15.7-33.2-15.7-16.7 0-25.1 8-33.2 15.7-8.1 7.7-15.8 15-31.4 15-15.6 0-23.3-7.3-31.4-15-8.1-7.7-16.5-15.7-33.2-15.7-16.7 0-25.1 8-33.2 15.7-6.1 5.8-11.9 11.3-21 13.7-0.7 0.2-1.1 0.9-0.9 1.6 0.2 0.7 0.9 1.1 1.6 0.9 9.8-2.6 16.1-8.6 22.1-14.4 8.1-7.7 15.8-15 31.4-15 15.6 0 23.3 7.3 31.4 15 8.1 7.7 16.5 15.7 33.2 15.7 16.7 0 25.1-8 33.2-15.7 8.1-7.7 15.8-15 31.4-15 15.6 0 23.3 7.3 31.4 15 8.1 7.7 16.5 15.7 33.2 15.7 16.7 0 25.1-8 33.2-15.7 8.1-7.7 15.8-15 31.4-15 0.6 0.2 1.2-0.4 1.2-1.2z"/>
	</g>
</svg>